<?xml version="1.0" encoding="UTF-8" standalone="no"?>
<!DOCTYPE svg PUBLIC "-//W3C//DTD SVG 1.1//EN" "http://www.w3.org/Graphics/SVG/1.1/DTD/svg11.dtd">
<svg width="100%" height="100%" viewBox="0 0 4563 1167" version="1.1" xmlns="http://www.w3.org/2000/svg" xmlns:xlink="http://www.w3.org/1999/xlink" xml:space="preserve" xmlns:serif="http://www.serif.com/" style="fill-rule:evenodd;clip-rule:evenodd;strokeLinejoin:round;stroke-miterlimit:2;">
    <g transform="matrix(4.16667,0,0,4.16667,0,0)">
        <path d="M623.6,149L623.6,130.1L633.9,130.1L633.9,133.2L627.3,133.2L627.3,137.8L633.6,137.8L633.6,140.8L627.3,140.8L627.3,145.9L633.9,145.9L633.9,149L623.6,149Z" style="fill:rgb(18,24,23);fill-rule:nonzero;"/>
        <path d="M643.2,133C642.4,133 641.6,133 641,133.1L641,145.8C641.5,145.9 642.3,145.9 643,145.9C646.6,145.9 649.1,143.9 649.1,139.4C649.1,135.4 647.5,133 643.2,133ZM642.6,149.1C640.6,149.1 638.9,149 637.3,149L637.3,130.2C638.8,130.1 641.1,130.1 643.4,130.1C649.3,130.1 653,132.7 653,139.3C653,145.7 648.8,149.1 642.6,149.1Z" style="fill:rgb(18,24,23);fill-rule:nonzero;"/>
        <path d="M663.3,149.3C657.3,149.3 656,146.1 656,142.4L656,130.1L659.6,130.1L659.6,142.2C659.6,144.6 660.4,146.3 663.5,146.3C666.3,146.3 667.5,145.1 667.5,141.9L667.5,130.1L671.1,130.1L671.1,141.7C671.2,146.8 668.3,149.3 663.3,149.3Z" style="fill:rgb(18,24,23);fill-rule:nonzero;"/>
        <path d="M682.9,149.2C676.3,149.2 674.2,144.8 674.2,140.1C674.2,134.1 677.3,129.9 683.7,129.9C685,129.9 686.5,130.1 687.7,130.5L687.2,133.8C686.1,133.4 684.8,133.2 683.5,133.2C680,133.2 678.2,135.9 678.2,139.6C678.2,143.7 679.9,146 683.7,146C684.8,146 686.3,145.7 687.3,145.2L687.9,148.4C686.5,148.9 684.7,149.2 682.9,149.2Z" style="fill:rgb(18,24,23);fill-rule:nonzero;"/>
        <path d="M698.1,136.8C697.8,135.9 697.5,135 697.3,134.2C697.1,135 696.9,135.9 696.5,136.8L694.6,142.2L699.9,142.2L698.1,136.8ZM702.3,149L701,145.1L693.9,145.1L692.6,149L688.9,149L695.5,130.1L699.6,130.1L706.3,149L702.3,149Z" style="fill:rgb(18,24,23);fill-rule:nonzero;"/>
        <path d="M715.5,155.5L712.8,155.5C714.1,153.9 714.4,152.7 713.1,151L716.1,150.1C717.5,152.1 717,153.9 715.5,155.5ZM715.7,149.2C709.1,149.2 707,144.8 707,140.1C707,134.1 710.1,129.9 716.5,129.9C717.8,129.9 719.3,130.1 720.5,130.5L720,133.8C718.9,133.4 717.6,133.2 716.3,133.2C712.8,133.2 711,135.9 711,139.6C711,143.7 712.7,146 716.5,146C717.6,146 719.1,145.7 720.1,145.2L720.7,148.4C719.2,148.9 717.4,149.2 715.7,149.2Z" style="fill:rgb(18,24,23);fill-rule:nonzero;"/>
        <path d="M730.9,136.8C730.6,135.9 730.3,135 730.1,134.2C729.9,135 729.7,135.9 729.3,136.8L727.4,142.2L732.7,142.2L730.9,136.8ZM731.8,128.6C729.9,128.6 729.3,127.3 728.2,127.3C727.5,127.3 727,127.7 726.6,128.5L724.8,127.3C725.6,125.8 726.8,125 728.3,125C730.2,125 730.8,126.3 731.9,126.3C732.6,126.3 733,125.9 733.5,125.1L735.3,126.3C734.4,127.8 733.3,128.6 731.8,128.6ZM735,149L733.7,145.1L726.6,145.1L725.3,149L721.6,149L728.2,130.1L732.3,130.1L739,149L735,149Z" style="fill:rgb(18,24,23);fill-rule:nonzero;"/>
        <path d="M748.4,133C745.8,133 743.4,135.1 743.4,139.3C743.4,143.3 745,145.9 748.4,145.9C750.9,145.9 753.5,144 753.5,139.5C753.4,135.3 751.7,133 748.4,133ZM748.1,149.3C742.3,149.3 739.5,145.6 739.5,139.8C739.5,133.6 743.7,129.8 748.7,129.8C753.7,129.8 757.3,132.8 757.3,139.3C757.3,145.5 753.2,149.3 748.1,149.3Z" style="fill:rgb(18,24,23);fill-rule:nonzero;"/>
        <path d="M759.5,153.8L758,152.5C759.9,150.5 760,149.3 759.1,148.2C758.1,146.9 758.8,144.8 760.8,144.8C763.5,144.8 764.7,149.2 759.5,153.8Z" style="fill:rgb(18,24,23);fill-rule:nonzero;"/>
        <path d="M780.4,149.2C773.8,149.2 771.7,144.8 771.7,140.1C771.7,134.1 774.8,129.9 781.2,129.9C782.5,129.9 784,130.1 785.2,130.5L784.7,133.8C783.6,133.4 782.3,133.2 781,133.2C777.5,133.2 775.7,135.9 775.7,139.6C775.7,143.7 777.4,146 781.2,146C782.3,146 783.8,145.7 784.8,145.2L785.4,148.4C783.9,148.9 782.1,149.2 780.4,149.2Z" style="fill:rgb(18,24,23);fill-rule:nonzero;"/>
        <rect x="788.6" y="130.1" width="3.6" height="18.9" style="fill:rgb(18,24,23);fill-rule:nonzero;"/>
        <path d="M804.9,128.9L801.1,127.2L797.3,128.9L796.5,127.2L801.1,124.8L805.7,127.2L804.9,128.9ZM796.1,149L796.1,130.1L806.4,130.1L806.4,133.2L799.8,133.2L799.8,137.8L806.1,137.8L806.1,140.8L799.8,140.8L799.8,145.9L806.4,145.9L806.4,149L796.1,149Z" style="fill:rgb(18,24,23);fill-rule:nonzero;"/>
        <path d="M820.9,149L815.4,139.5C814.6,138.1 813.9,136.7 813.4,135.4C813.5,137 813.6,140 813.6,142.3L813.6,149L810.1,149L810.1,130.1L814.8,130.1L820.1,139.1C821,140.6 821.7,142.1 822.4,143.6C822.3,141.7 822.2,138.3 822.2,136L822.2,130.1L825.7,130.1L825.7,149L820.9,149Z" style="fill:rgb(18,24,23);fill-rule:nonzero;"/>
        <path d="M837.3,149.2C830.7,149.2 828.6,144.8 828.6,140.1C828.6,134.1 831.7,129.9 838.1,129.9C839.4,129.9 840.9,130.1 842.1,130.5L841.6,133.8C840.5,133.4 839.2,133.2 837.9,133.2C834.4,133.2 832.6,135.9 832.6,139.6C832.6,143.7 834.3,146 838.1,146C839.2,146 840.7,145.7 841.7,145.2L842.3,148.4C840.9,148.9 839.1,149.2 837.3,149.2Z" style="fill:rgb(18,24,23);fill-rule:nonzero;"/>
        <rect x="845.5" y="130.1" width="3.6" height="18.9" style="fill:rgb(18,24,23);fill-rule:nonzero;"/>
        <path d="M860.5,136.8C860.2,135.9 859.9,135 859.7,134.2C859.5,135 859.3,135.9 858.9,136.8L857,142.2L862.3,142.2L860.5,136.8ZM864.6,149L863.3,145.1L856.2,145.1L854.9,149L851.2,149L857.8,130.1L861.9,130.1L868.6,149L864.6,149Z" style="fill:rgb(18,24,23);fill-rule:nonzero;"/>
        <path d="M876.7,149L876.7,130.1L887,130.1L887,133.2L880.4,133.2L880.4,137.8L886.7,137.8L886.7,140.8L880.4,140.8L880.4,145.9L887,145.9L887,149L876.7,149Z" style="fill:rgb(18,24,23);fill-rule:nonzero;"/>
        <rect x="896.6" y="130.1" width="3.6" height="18.9" style="fill:rgb(18,24,23);fill-rule:nonzero;"/>
        <path d="M915.6,149L910.1,139.5C909.3,138.1 908.6,136.7 908.1,135.4C908.2,137 908.3,140 908.3,142.3L908.3,149L904.8,149L904.8,130.1L909.5,130.1L914.8,139.1C915.7,140.6 916.4,142.1 917.1,143.6C917,141.7 916.9,138.3 916.9,136L916.9,130.1L920.4,130.1L920.4,149L915.6,149Z" style="fill:rgb(18,24,23);fill-rule:nonzero;"/>
        <path d="M932.1,133C929.5,133 927.1,135.1 927.1,139.3C927.1,143.3 928.7,145.9 932.1,145.9C934.6,145.9 937.2,144 937.2,139.5C937.2,135.3 935.4,133 932.1,133ZM931.8,149.3C926,149.3 923.2,145.6 923.2,139.8C923.2,133.6 927.4,129.8 932.4,129.8C937.4,129.8 941,132.8 941,139.3C941.1,145.5 937,149.3 931.8,149.3Z" style="fill:rgb(18,24,23);fill-rule:nonzero;"/>
        <path d="M952.1,149L947.9,149L941.3,130.1L945.3,130.1L949,141.2C949.4,142.3 949.8,143.7 950.1,144.8L950.2,144.8C950.5,143.6 950.9,142.2 951.3,140.9L955,130.1L958.7,130.1L952.1,149Z" style="fill:rgb(18,24,23);fill-rule:nonzero;"/>
        <path d="M966.7,136.8C966.4,135.9 966.1,135 965.9,134.2C965.7,135 965.5,135.9 965.1,136.8L963.2,142.2L968.5,142.2L966.7,136.8ZM970.8,149L969.5,145.1L962.4,145.1L961.1,149L957.4,149L964,130.1L968.1,130.1L974.8,149L970.8,149Z" style="fill:rgb(18,24,23);fill-rule:nonzero;"/>
        <path d="M984,155.5L981.3,155.5C982.6,153.9 982.9,152.7 981.6,151L984.6,150.1C986,152.1 985.6,153.9 984,155.5ZM984.2,149.2C977.6,149.2 975.5,144.8 975.5,140.1C975.5,134.1 978.6,129.9 985,129.9C986.3,129.9 987.8,130.1 989,130.5L988.5,133.8C987.4,133.4 986.1,133.2 984.8,133.2C981.3,133.2 979.5,135.9 979.5,139.6C979.5,143.7 981.2,146 985,146C986.1,146 987.6,145.7 988.6,145.2L989.2,148.4C987.7,148.9 986,149.2 984.2,149.2Z" style="fill:rgb(18,24,23);fill-rule:nonzero;"/>
        <path d="M999.4,136.8C999.1,135.9 998.8,135 998.6,134.2C998.4,135 998.2,135.9 997.8,136.8L995.9,142.2L1001.2,142.2L999.4,136.8ZM1000.3,128.6C998.4,128.6 997.8,127.3 996.7,127.3C996,127.3 995.5,127.7 995.1,128.5L993.3,127.3C994.1,125.8 995.3,125 996.8,125C998.7,125 999.3,126.3 1000.4,126.3C1001.1,126.3 1001.5,125.9 1002,125.1L1003.8,126.3C1003,127.8 1001.8,128.6 1000.3,128.6ZM1003.5,149L1002.2,145.1L995.1,145.1L993.8,149L990.1,149L996.7,130.1L1000.8,130.1L1007.5,149L1003.5,149Z" style="fill:rgb(18,24,23);fill-rule:nonzero;"/>
        <path d="M1016.9,133C1014.3,133 1011.9,135.1 1011.9,139.3C1011.9,143.3 1013.5,145.9 1016.9,145.9C1019.4,145.9 1022,144 1022,139.5C1022,135.3 1020.2,133 1016.9,133ZM1016.6,149.3C1010.8,149.3 1008,145.6 1008,139.8C1008,133.6 1012.2,129.8 1017.2,129.8C1022.2,129.8 1025.8,132.8 1025.8,139.3C1025.9,145.5 1021.8,149.3 1016.6,149.3Z" style="fill:rgb(18,24,23);fill-rule:nonzero;"/>
        <path d="M112.4,69.3C83.6,78.6 69,103.1 69,140.9L69,198.2C69,198.2 73.8,161.4 112.5,150.7L112.4,69.3Z" style="fill:rgb(8,94,48);fill-rule:nonzero;"/>
        <path d="M115.6,80.1C115.6,80.1 137.5,71.8 168.8,70C168.8,70 168.7,96.1 167.9,117.3C165.3,184.3 105.4,149.9 76.1,185.5C82,170.1 102,159.1 115.6,156.4L115.6,80.1Z" style="fill:rgb(219,31,40);fill-rule:nonzero;"/>
        <path d="M107.6,175.7C107.6,175.7 75.8,178.3 73.1,196.4C71,210.6 107.6,211 107.6,211L107.6,175.7Z" style="fill:rgb(8,94,48);fill-rule:nonzero;"/>
        <path d="M70.3,122.3C76.9,106.9 88,91.2 112.4,81.3L112.4,69.3C88.6,77 74.5,95 70.3,122.3Z" style="fill:rgb(112,160,64);fill-rule:nonzero;"/>
        <path d="M113.2,143.1L113.2,150.7C113.2,150.7 113.2,150.8 113.1,150.8L112.5,150.8C112.5,150.8 112.4,150.8 112.4,150.7L112.4,143C112.7,143 112.9,143 113.2,143.1ZM112.1,150.2C103,149.6 95.1,144.8 90.2,137.7C90.2,137.6 90.1,137.6 90.1,137.5C90.3,137.4 90.6,137.3 90.8,137.2C95.5,144.1 103.2,148.8 112,149.4L112.1,150.2ZM88.7,135.6C88.6,135.6 88.5,135.5 88.5,135.5C88.5,135.4 88.2,134.9 88.2,134.9C88.2,134.8 88.3,134.6 88.4,134.5C86.7,131.1 85.7,127.4 85.4,123.5C85.6,123.4 85.9,123.3 86.1,123.2C86.3,127.1 87.3,130.7 88.9,134C89.3,133.7 89.8,133.5 90.3,133.2C88.7,130 87.8,126.5 87.6,122.8L88.3,122.8C88.5,126.4 89.4,129.8 90.9,132.9C91.8,132.5 92.9,132.2 94,131.9C95,131.6 96,131.4 97,131.1C97.1,131.3 97.2,131.6 97.3,131.8C96.2,132 95.2,132.3 94.2,132.6L94,132.6C93.9,132.6 93.9,132.6 93.8,132.7L93.4,132.7C93.3,132.7 93.2,132.8 93.1,132.8C93,132.8 93,132.8 92.9,132.9C92.8,132.9 92.6,133 92.5,133.1C92.4,133.1 92.3,133.2 92.1,133.2C91.8,133.3 91.5,133.4 91.2,133.5C91,133.6 90.7,133.7 90.5,133.8L90.3,133.8C90.3,133.8 90.2,133.8 90.2,133.9C90,134 89.9,134.1 89.7,134.1C89.7,134.1 89.6,134.1 89.6,134.2L89.4,134.2C89.3,134.3 89.1,134.4 89,134.4C88.7,134.6 88.5,134.8 88.4,134.9C88.4,135 88.3,135.1 88.3,135.1C88.6,135.5 88.6,135.6 88.7,135.6ZM89.9,137.4C89.8,137.5 89.7,137.6 90,137.8C89.9,137.8 89.7,137.7 89.7,137.6C89.6,137.5 89.4,137.1 89.4,137.1C89.4,137 89.5,136.9 89.6,136.8C89.7,136.6 89.9,136.5 90.2,136.3L90.4,136.3L90.5,136.2L90.7,136.2C90.8,136.2 90.8,136.1 90.9,136.1L91,136.1C91.1,136 91.2,136 91.4,135.9C91.5,135.9 91.6,135.8 91.7,135.7C91.9,135.6 92.1,135.5 92.4,135.4C92.5,135.4 92.6,135.3 92.7,135.3L92.8,135.3C92.9,135.3 93,135.2 93.1,135.2L93.2,135.2C93.3,135.2 93.4,135.1 93.5,135.1L93.6,135.1C93.7,135.1 93.8,135 93.9,135L94,135C94.1,135 94.2,134.9 94.3,134.9L94.5,134.9C94.6,134.9 94.6,134.9 94.7,134.8C95.8,134.5 97,134.2 98.1,133.9C98.2,134.1 98.4,134.4 98.5,134.6C97.2,134.8 96.1,135.1 94.9,135.5C93.1,135.5 90.6,136.5 89.9,137.4ZM85.3,123C85.2,123.1 85.2,123.1 85.2,123.2C85.1,123.3 85,123.5 85.1,123.7C85,123.7 84.9,123.6 84.9,123.5L84.9,122.7C84.9,122.5 85.1,122.4 85.2,122.2L85.3,122.1C85.5,121.9 85.8,121.7 86.1,121.6L86.6,121.6C86.7,121.6 86.7,121.5 86.8,121.5L87.2,121.5C87.3,121.5 87.4,121.4 87.5,121.4C87.8,121.3 88.1,121.2 88.4,121.1L88.8,121.1C88.8,121.1 88.9,121.1 89,121C89.1,121 89.1,121 89.2,120.9C89.2,120.9 89.3,120.9 89.3,120.8L91.8,120.8C91.9,120.8 91.9,120.8 92,120.7L95,120.7C95.3,120.6 95.6,120.6 96,120.5L96,121.3C95.7,121.4 95.4,121.4 95.2,121.5C92.8,122 90.3,122.6 88.4,123.4C88.2,123.5 87.9,123.6 87.7,123.7C87.1,124 86.5,124.2 86.1,124.5C85.9,124.7 85.7,124.8 85.5,125C85.4,122.9 85.3,123 85.3,123ZM143.2,122.6L143.2,123.4C143.2,123.5 143.1,123.6 143,123.6C143.1,123.4 143,123.2 142.9,123.1C142.9,123 142.8,123 142.8,122.9L142.7,122.8L142.6,122.7C142.4,122.6 142.3,122.5 142.1,122.3C141.7,122 141.1,121.7 140.5,121.5C140.4,121.5 140.4,121.5 140.3,121.4C140.1,121.3 140,121.3 139.8,121.2L139.7,121.2C137.7,120.5 135.2,119.8 132.9,119.3C132.6,119.3 132.3,119.2 132.1,119.1L132.1,118.3C132.4,118.4 132.7,118.4 133,118.5L135.8,118.5C135.9,118.5 135.9,118.5 136,118.6L136.2,118.6C136.3,118.6 136.3,118.6 136.4,118.7L138.4,118.7C138.4,118.7 138.5,118.7 138.6,118.8C138.7,118.8 138.8,118.9 139,118.9L139.7,118.9C140,119 140.3,119.1 140.5,119.2L140.9,119.2C140.9,119.2 141,119.2 141,119.3L141.5,119.3C141.5,119.3 141.6,119.3 141.6,119.4L142,119.4C142.3,119.6 142.6,119.8 142.8,119.9L142.9,120C143,122.3 143.1,122.4 143.2,122.6ZM143.2,120.1L143.2,120.9C143.2,121 143.1,121.1 143,121.1C143.1,121 143,120.8 142.8,120.7L142.7,120.6L142.6,120.5C142.4,120.3 142.2,120.1 141.9,119.9L141.8,119.8L141.5,119.8C141.5,119.8 141.4,119.8 141.4,119.7L140.9,119.7C140.9,119.7 140.8,119.7 140.8,119.6C140.8,119.6 140.7,119.6 140.7,119.5L140.6,119.5C140.6,119.5 140.5,119.5 140.5,119.4L140.4,119.4C140.1,119.3 139.8,119.2 139.5,119C139.4,119 139.4,119 139.3,118.9C139.2,118.9 139,118.8 138.9,118.7C138.8,118.7 138.8,118.7 138.7,118.6C138.6,118.6 138.4,118.5 138.3,118.4C138.2,118.4 138,118.3 137.9,118.3C137.8,118.3 137.8,118.3 137.7,118.2C137.6,118.2 137.6,118.2 137.5,118.1C137.4,118.1 137.2,118 137.1,117.9C137,117.9 137,117.9 136.9,117.8C136.8,117.8 136.6,117.7 136.5,117.7C136.4,117.7 136.4,117.7 136.3,117.6C136.2,117.6 136,117.5 135.9,117.4C135.8,117.4 135.8,117.4 135.7,117.3C135.6,117.3 135.6,117.3 135.5,117.2L135.1,117.2C135,117.2 135,117.2 134.9,117.1L134.7,117.1C134.6,117.1 134.6,117.1 134.5,117L133.1,117C132.8,116.9 132.6,116.9 132.3,116.9L132.3,116.1C132.6,116.2 132.9,116.2 133.2,116.3C135.7,116.8 137.9,117.4 139.7,118C139.3,115.2 138.5,112.6 137.3,110.3C137,109.8 136.8,109.3 136.5,108.8L136.5,108.7L137.3,108.7C139,111.6 140.1,114.9 140.5,118.4C141.2,118.7 141.7,118.9 142.2,119.2C141.9,115.5 140.8,112 139.2,108.9C139.5,109 139.8,109 140.1,109.1C140.1,109.2 140.2,109.3 140.2,109.4C141.7,112.6 142.7,116.1 142.9,119.8C143,119.7 143.1,119.9 143.2,120.1ZM142.7,123.4L142.7,123.8C142.4,127.5 141.4,131 139.8,134.2C140,134.6 140,134.9 139.9,135.2C139.9,135.2 139.7,135.5 139.5,135.7C139.4,135.9 139.3,135.9 139.1,136C139.2,136 139.5,135.7 139.4,135.2C139.4,135.1 139.4,135.1 139.3,135C139.3,134.9 139.2,134.8 139.1,134.6C138.9,134.3 138.6,134 138.3,133.6C138.3,133.6 138.3,133.5 138.2,133.5C138.2,133.5 138.2,133.4 138.1,133.4C137.8,133 137.4,132.6 136.9,132.2L136.3,131.6C136.2,131.5 136,131.3 135.8,131.2C135.7,131.2 135.7,131.1 135.7,131.1C135.5,131 135.4,130.8 135.2,130.7L135.1,130.6C135,130.6 135,130.5 134.9,130.5C134.8,130.4 134.7,130.3 134.6,130.2C134.5,130.2 134.5,130.1 134.5,130.1C134.5,130.1 134.4,130 134.3,130C134.2,130 134.2,129.9 134.1,129.9C134,129.9 134,129.8 133.9,129.8L133.8,129.7L133.7,129.6C133.6,129.6 133.6,129.5 133.5,129.5C133.4,129.5 133.4,129.4 133.3,129.4L133.2,129.4L133.1,129.3L133,129.3L132.9,129.2C132.8,129.2 132.8,129.1 132.7,129.1C132.6,129.1 132.6,129 132.5,129L132.4,128.9L132.3,128.9L132.2,128.8L132.1,128.8C132,128.8 132,128.7 131.9,128.7C132,128.4 132,128.1 132,127.8C134.3,129.5 136.3,131.1 137.7,132.5C138.6,130.4 139.2,128.2 139.5,125.9L139.5,123.8L140.2,123.8C140,127.1 139.3,130.3 138,133.1C138.5,133.6 138.9,134 139.2,134.4C140.7,131.2 141.6,127.7 141.8,124C142.2,123.2 142.5,123.3 142.7,123.4ZM136.6,139.4C136.5,139.5 136.5,139.6 136.4,139.6C136.3,139.7 136.3,139.8 136.2,139.8C131.2,145.8 123.9,149.7 115.7,150.2L115.7,150.7L115,150.7C115,150.7 114.9,150.7 114.9,150.6L114.9,143.1L115.7,143.1L115.7,147.3C122.1,146.9 127.8,144.1 132.1,139.9C132.2,139.8 132.2,139.8 132.3,139.7C132.8,139.2 133.3,138.6 133.8,138C134.1,138.1 134.3,138.2 134.6,138.2C130.1,143.8 123.3,147.5 115.7,148L115.7,149.6C124,149.1 131.3,145.1 136.1,139C136.3,139.1 136.5,139.3 136.6,139.4ZM137.4,138.6C137.4,138.8 137.4,138.9 137.3,139C137.3,139 137.1,139.4 137,139.5C136.9,139.6 136.8,139.8 136.5,139.8C136.6,139.8 137,139.7 136.8,139C136.8,138.9 136.7,138.9 136.7,138.8C136.6,138.7 136.5,138.5 136.4,138.3C136.1,138 135.8,137.5 135.3,137.1C135.1,136.9 135,136.8 134.8,136.6C133.7,135.6 132.2,134.3 130.2,132.8C130.3,132.6 130.399,132.3 130.6,132.1C132.9,133.8 134.7,135.3 135.9,136.5C136,136.6 136.1,136.7 136.2,136.8C136.2,136.8 136.3,136.8 136.3,136.9L136.4,137C136.4,137 136.4,137.1 136.5,137.1L136.6,137.2L136.7,137.3C136.7,137.3 136.7,137.4 136.8,137.4C136.9,137.5 136.9,137.5 137,137.6L137,137.7C137.2,138 137.4,138.2 137.4,138.4L137.4,138.6ZM112.4,100.8L112.4,92.3C112.4,92.3 112.4,92.2 112.5,92.2L113.1,92.2C113.1,92.2 113.2,92.2 113.2,92.3L113.2,100.8L112.4,100.8ZM84.9,120.9L84.9,120.2C85,120 85.1,119.8 85.4,119.6C85.6,116.5 86.3,113.6 87.4,110.9L87.4,110.8C87.4,110.7 87.4,110.7 87.5,110.6C87.5,110.5 87.6,110.4 87.6,110.3L87.6,110.2C87.7,110.2 88,110.3 88.3,110.4C87.1,113.1 86.4,116 86.1,119C86.6,118.7 87.1,118.5 87.8,118.2C88.1,115.8 88.7,113.5 89.6,111.3C89.8,111.5 90,111.7 90.2,111.9C90,112.3 89.9,112.7 89.8,113.1C89.3,114.6 88.9,116.2 88.6,117.9C90.4,117.3 92.6,116.7 95.1,116.2C95.4,116.1 95.7,116.1 96.1,116L96.1,116.8C95.8,116.9 95.6,116.9 95.3,117L93.9,117C93.8,117 93.8,117 93.7,117.1L93.5,117.1C93.4,117.1 93.4,117.1 93.3,117.2C93.2,117.2 93.1,117.2 93.1,117.3C93,117.3 93,117.3 92.9,117.4C92.8,117.4 92.6,117.5 92.5,117.6C92.4,117.6 92.4,117.6 92.3,117.7C92.2,117.7 92.2,117.7 92.1,117.8C92,117.8 92,117.8 91.9,117.9C91.8,117.9 91.6,118 91.5,118C91.4,118 91.4,118 91.3,118.1C91.2,118.1 91.2,118.1 91.1,118.2C91,118.2 91,118.2 90.9,118.3C90.8,118.3 90.8,118.3 90.7,118.4C90.6,118.4 90.6,118.4 90.5,118.5C90.4,118.5 90.2,118.6 90.1,118.6C90,118.6 90,118.6 89.9,118.7C89.8,118.7 89.8,118.7 89.7,118.8C89.6,118.9 89.4,118.9 89.3,118.9C89.2,118.9 89,119 88.9,119.1C88.6,119.2 88.4,119.3 88.1,119.4L87.9,119.4C87.8,119.4 87.7,119.5 87.7,119.5C87.7,119.5 87.6,119.5 87.6,119.6C87.6,119.6 87.5,119.6 87.5,119.7C87.5,119.7 87.4,119.7 87.4,119.8L87.3,119.8C87.3,119.8 87.2,119.8 87.2,119.9C87.1,119.9 87.1,120 87,120C87,120 86.9,120 86.9,120.1C86.8,120.1 86.8,120.2 86.7,120.2L86.6,120.2C86.6,120.2 86.5,120.2 86.5,120.3C86.2,120.5 86,120.7 85.8,120.9C85.6,121.1 85.4,121.3 85.5,121.4C84.9,121 84.9,121 84.9,120.9ZM112.4,92.8M139.3,107.7C139.6,107.8 139.8,108 139.9,108.1C139.9,108.1 140.2,108.7 140.3,108.8C140.4,108.9 140.3,109.1 140.1,109.2C140.2,109.2 140.3,109 140,108.9C139.9,108.9 139.8,108.8 139.8,108.8C139,108.4 137.9,108 136.4,107.6C136.1,107.5 135.7,107.4 135.3,107.3C134.3,107.1 133.2,106.8 132.1,106.5L132.1,105.7C132.2,105.7 132.4,105.8 132.5,105.8L134.2,105.8C134.6,105.9 135,106 135.3,106.1L135.5,106.1C135.6,106.1 135.7,106.2 135.8,106.2C136,106.3 136.1,106.3 136.3,106.3C136.8,106.5 137.3,106.6 137.7,106.8C138.6,107.4 138.9,107.5 139.3,107.7C139.2,107.7 139.3,107.7 139.3,107.7ZM114.9,100.6L114.9,92.2L115.5,92.2C115.6,92.2 115.6,92.2 115.6,92.3L115.6,92.8C124.7,93.3 132.7,98 137.6,105.1C138,105.3 138.2,105.4 138.5,105.6C138.5,105.6 138.9,106.3 139.1,106.5C139.2,106.6 139.1,106.8 139,106.9C139.1,106.8 139.1,106.7 138.9,106.5C138.8,106.4 138.7,106.3 138.6,106.3L138.5,106.3C138.5,106.3 138.4,106.3 138.4,106.2C138,106 137.6,105.8 137.1,105.6C137,105.6 137,105.6 137,105.5C137,105.5 136.9,105.5 136.9,105.4C136.9,105.4 136.8,105.4 136.8,105.3C136.7,105.3 136.7,105.3 136.6,105.2C136.6,105.2 136.5,105.2 136.4,105.1C136.4,105.1 136.3,105.1 136.2,105C136.1,105 136.1,105 136,104.9C135.9,104.9 135.8,104.8 135.7,104.8C135.7,104.8 135.6,104.8 135.5,104.7C135.4,104.7 135.4,104.7 135.3,104.6C135.2,104.6 135.2,104.6 135.1,104.5L134.9,104.5C134.8,104.5 134.8,104.5 134.7,104.4L134.5,104.4C134,104.3 133.5,104.1 133,104C132.9,104 132.8,104 132.7,103.9C132.6,103.9 132.5,103.9 132.5,103.8L132.3,103.8C132.2,103.8 132.1,103.8 132.1,103.7L132.1,101.9C132.6,102.3 133,102.8 133.4,103.3C134.5,103.6 135.5,103.9 136.3,104.2C131.5,97.9 124.1,93.8 115.7,93.3L115.7,94.9C121.4,95.2 126.5,97.4 130.7,100.7L129.5,100.7C125.6,97.8 120.9,96 115.7,95.6L115.7,100.6L114.9,100.6ZM95.8,139.6C99.9,143.8 105.5,146.5 111.6,147.1L111.7,147.9C103.8,147.3 96.9,143.1 92.6,137.1L93.6,137.1C94.3,137.9 95,138.7 95.8,139.6ZM87.1,110.5C87,110.3 87.1,110.1 87.1,110L87.5,109.3C87.6,109.2 87.8,109.2 88,109.2L88.2,109.2C88.4,109.2 88.6,109.2 88.8,109.3C89.3,109.4 89.8,109.5 90.4,109.7C90.6,109.8 90.9,109.8 91.1,109.9C91.2,109.9 91.3,110 91.4,110L91.8,110C91.8,110 91.9,110 91.9,110.1L92.1,110.1C92.1,110.1 92.2,110.1 92.2,110.2C92.2,110.2 92.3,110.2 92.3,110.3L92.4,110.3C92.4,110.3 92.5,110.3 92.5,110.4L92.9,110.4C92.9,110.4 93,110.4 93,110.5L93.2,110.5C93.2,110.5 93.3,110.5 93.3,110.6L95,110.6C95,110.6 95.1,110.6 95.1,110.7C95.2,110.7 95.2,110.8 95.3,110.8L95.3,111.7C93.3,110.8 91.5,110.1 90.1,109.7C89.9,109.6 89.6,109.5 89.4,109.5C88.8,109.3 88.2,109.2 87.8,109.1L87.1,109.1C87.4,109.9 87.2,110 87.1,110.5ZM111.7,96C106.8,96.4 102.4,98.2 98.7,101L97.5,101C101.5,97.8 106.4,95.7 111.8,95.3L111.7,96ZM91.5,104.9M89.8,105.7L91.4,105.7C91.5,105.7 91.6,105.7 91.7,105.8L91.8,105.8C91.9,105.8 92,105.9 92.1,105.9C92.5,106 92.9,106.1 93.3,106.3L93.5,106.3C93.6,106.3 93.8,106.4 93.9,106.4L94.3,106.4C94.4,106.4 94.4,106.4 94.5,106.5L95,106.5C95.1,106.5 95.1,106.6 95.2,106.6C95.3,106.6 95.3,106.6 95.4,106.7L95.5,106.7C95.5,106.7 95.6,106.7 95.7,106.8L95.8,106.8C95.9,106.8 95.9,106.9 96,106.9L96,105.5C95.8,105.6 95.5,105.6 95.3,105.7C95.1,105.7 94.9,105.8 94.7,105.8C94.6,105.8 94.6,105.8 94.5,105.7L93.9,105.7C93.4,105.5 93,105.4 92.6,105.3L92.3,105.3C92.4,105.3 92.4,105.3 92.5,105.2L92.7,105.2C92.8,105.2 92.8,105.2 92.9,105.1C93,105.1 93.1,105 93.3,105C93.4,105 93.4,105 93.5,104.9C94.3,104.7 95.2,104.4 96.2,104.2L96.2,102.3C95.7,102.7 95.3,103.2 94.8,103.7C93.7,104 92.7,104.3 91.9,104.6C96.6,98.4 103.9,94.3 112.2,93.7L112.3,93C103.4,93.6 95.6,98.2 90.7,105C90.3,105 90,105.1 89.8,105.2L89.4,106C89.4,106 89.3,106.2 89.4,106.4C89.2,106 89.4,105.8 89.8,105.7Z" style="fill:rgb(248,154,38);fill-rule:nonzero;"/>
        <path d="M87.8,118.2C88.1,115.8 88.7,113.5 89.6,111.3C89.1,110.9 88.6,110.6 88.2,110.4C87,113.1 86.3,116 86,119C86.6,118.8 87.2,118.5 87.8,118.2ZM138.2,132.1C138.7,132.6 139.1,133 139.4,133.4C140.9,130.2 141.8,126.7 142,123C141.4,122.8 140.9,122.7 140.4,122.7C140.2,126.1 139.5,129.2 138.2,132.1ZM90.3,133.2C88.7,130 87.8,126.5 87.6,122.8C87.2,122.8 86.6,122.9 86,123.1C86.2,127 87.2,130.6 88.8,133.9C89.3,133.7 89.8,133.4 90.3,133.2ZM115.7,147.9L115.7,149.5C124,149 131.3,145 136.1,138.9C135.8,138.7 135.3,138.4 134.6,138.1C130.1,143.7 123.3,147.4 115.7,147.9ZM92.6,137C92.1,137 91.5,137.1 90.8,137.3C95.5,144.2 103.2,148.9 112,149.5L111.8,147.8C103.9,147.2 97,143 92.6,137ZM115.6,95.2C121.3,95.5 126.4,97.7 130.6,101L132,101L132,102.2C132.5,102.6 132.9,103.1 133.3,103.6C134.4,103.9 135.4,104.2 136.2,104.5C131.4,98.2 124,94.1 115.6,93.6L115.6,95.2ZM139,108.7C138.2,108.6 137.6,108.5 137.1,108.5C138.8,111.4 139.9,114.7 140.3,118.2C141,118.5 141.5,118.7 142,119C141.6,115.3 140.6,111.9 139,108.7ZM91.8,104.5C96.5,98.3 103.8,94.2 112.1,93.6L111.9,95.3C106.5,95.8 101.6,97.8 97.6,101L96,101L96,102.3C95.5,102.7 95.1,103.2 94.6,103.7C93.6,103.9 92.6,104.2 91.8,104.5Z" style="fill:rgb(247,237,59);fill-rule:nonzero;"/>
        <path d="M138.5,106.3C137.2,105.4 134.6,104.6 132,104.1L132,105.7C135.2,106.4 138,107.2 139.3,107.8L138.5,106.3Z" style="fill:rgb(247,237,59);fill-rule:nonzero;"/>
        <path d="M94.7,105.8C95.1,105.7 95.6,105.6 96,105.5L96,104C94.6,104.3 93.3,104.7 92.2,105C93,105.3 93.8,105.5 94.7,105.8Z" style="fill:rgb(247,237,59);fill-rule:nonzero;"/>
        <path d="M96,116.8C95.7,116.9 95.5,116.9 95.2,117C91.1,117.8 86.6,119.2 85.3,120.5L85.2,120.6L85.2,122.1C86.3,121 90.3,119.6 95.1,118.6C95.4,118.5 95.7,118.5 96.1,118.4L96,116.8Z" style="fill:rgb(247,237,59);"/>
        <path d="M142.7,120.5C141.4,119.2 136.9,117.7 132.8,117C132.5,116.9 132.3,116.9 132,116.9L132,118.6C132.3,118.7 132.6,118.7 132.9,118.8C137.7,119.8 141.6,121.1 142.8,122.3L142.8,120.8C142.8,120.6 142.8,120.5 142.7,120.5Z" style="fill:rgb(247,237,59);"/>
        <path d="M97.4,131.8C96.3,132 95.3,132.3 94.3,132.6C91.9,133.3 89.2,134.4 88.7,135.2L89.6,136.6C90.1,135.9 92,135 94.8,134.1C95.9,133.8 97.1,133.5 98.2,133.2C97.9,132.9 97.6,132.3 97.4,131.8Z" style="fill:rgb(247,237,59);"/>
        <rect x="113.2" y="92.6" width="1.7" height="8.3" style="fill:rgb(247,237,59);"/>
        <rect x="113.2" y="143" width="1.7" height="7.6" style="fill:rgb(247,237,59);"/>
        <path d="M139.2,134.6C138.1,132.9 135.2,130.4 131.8,127.8C131.6,129.3 131.1,130.8 130.5,132.1C134.3,134.9 137,137.3 137.3,138.4L139.4,135.1C139.5,135.1 139.4,134.9 139.2,134.6Z" style="fill:rgb(247,237,59);"/>
        <path d="M96,107.2C93.5,106.2 91.6,105.7 90.5,105.6L90.4,105.6C90.1,105.6 89.9,105.6 89.7,105.7L87.9,109.2L88.1,109.2C89.5,109.2 92.3,110.1 95.9,111.8L96,107.2Z" style="fill:rgb(247,237,59);"/>
        <path d="M136.8,139.2L136.8,139.1C136.8,139 136.7,139 136.7,138.9C136.5,138.4 135.8,137.6 134.7,136.7C133.6,135.7 132.1,134.4 130.2,133C129.3,134.8 128.2,136.4 126.8,137.8C125.2,139.4 123.3,140.7 121.1,141.6C123.9,141.4 126.5,141 128.6,140.6C129.399,140.5 130.6,140.2 132.1,139.9C132.7,139.3 133.3,138.7 133.8,138C135.4,138.4 136.3,139.2 136.6,139.5C136.5,139.7 136.3,139.8 136.2,140L136.6,140C136.6,139.8 137,139.8 136.8,139.2ZM143,123.3C142.9,123.2 142.8,123.1 142.8,123.1C142.7,123 142.7,123 142.6,122.9C142.1,122.5 141.3,122 140.3,121.6C140.1,121.5 139.9,121.4 139.7,121.4L139.7,121.7C137.1,122.5 134,123.1 132,123.4L132,125C132,125.5 132,126 131.9,126.5C134.8,126 137.4,125.5 139.4,124.9C139.5,124.2 139.6,123.5 139.6,122.8C140.1,122.8 141.4,122.8 142.7,123.4L142.7,123.8C142.8,123.7 142.9,123.7 143,123.6C143.1,123.5 143,123.4 143,123.3ZM139,136C139,136 139.1,136 139,136L139.3,136C139.4,135.9 139.6,135.7 139.5,135.2L139,136ZM139,106.9C139.1,106.8 139.1,106.7 138.8,106.5C138.7,106.4 138.6,106.3 138.5,106.3L138.9,106.9L139,106.9ZM143,121.1C143.1,121 143,120.8 142.8,120.7L142.8,121.2C142.9,121.1 143,121.1 143,121.1ZM132,108.1L132,111.4C134,111 135.7,110.6 137,110.2C136.7,109.6 136.4,109.1 136.1,108.6C136.5,108.6 138,108.5 139.8,109C139.8,109.1 139.9,109.2 139.9,109.3L140.1,109.3C140.2,109.3 140.3,109.1 140,109C139.9,109 139.8,108.9 139.8,108.9C138.8,108.4 137.3,107.9 135.3,107.4L135.4,107.5C134.4,107.5 133.3,107.9 132,108.1Z" style="fill-rule:nonzero;"/>
        <path d="M88.6,135.2C88.6,135.3 88.5,135.4 88.5,135.4C88.5,135.5 88.5,135.5 88.6,135.5L88.5,135.5L88.7,135.5L88.6,135.2ZM101.3,137.6C101.2,137.5 101.2,137.5 101.1,137.4C98.4,137 95.6,136.5 92.7,135.8L92.6,135.7C91.3,136.2 90.3,136.8 89.8,137.3C89.7,137.4 89.6,137.5 89.9,137.7C90,137.8 90.2,137.8 90.3,137.9C90.2,137.8 90.1,137.6 90,137.5C91.6,136.8 93.1,136.9 93.4,137C94.1,137.9 94.8,138.8 95.6,139.6C98.7,140.4 102.5,141 106.6,141.4C104.8,140.5 102.9,139.2 101.3,137.6ZM112.1,150.2L112.4,150.2L112.4,147.1C112.1,147.1 111.9,147.1 111.6,147L112.1,150.2ZM96,125L96,123.4C94.1,123.1 90.9,122.5 88.3,121.7L88.3,121.4C88,121.5 87.7,121.6 87.5,121.7C87.3,121.8 87,121.9 86.8,122C86.2,122.3 85.7,122.6 85.4,122.9C85.3,122.9 85.3,123 85.3,123L85.2,123.1C85.3,123.2 85.4,123.2 85.5,123.3L85.5,122.9C86.8,122.3 88,122.3 88.6,122.3C88.6,123 88.7,123.7 88.8,124.4C90.8,124.9 93.4,125.5 96.3,126C96.1,126 96,125.5 96,125ZM87.3,110.9C87.4,110.6 87.5,110.4 87.6,110.1C88,110.2 89.3,110.6 90.2,111.8C90,112.3 89.8,112.8 89.6,113.4C90.6,114.3 91.9,115.3 93.5,116.4C94,116.3 94.5,116.2 95,116.1C95.3,116 95.6,116 96,115.9L96,112.4C94.1,111.5 92.4,110.9 91,110.4L90.8,110.4C89.5,110 88.6,109.8 87.9,109.8L87.6,109.8C87.4,109.9 87.2,110 87.1,110.4L87.1,110.3L87.1,110.4C87.2,110.6 87.2,110.8 87.3,110.9ZM112.4,92.8L112.1,92.8L111.6,96C111.9,96 112.1,95.9 112.4,95.9L112.4,92.8ZM85.2,121.1L85.2,120.6C85.1,120.8 84.9,120.9 85,121C85.1,121.1 85.1,121.1 85.2,121.1ZM89.3,106.6C89.3,106.5 89.2,106.4 89.2,106.3C89.2,106.1 89.4,105.8 89.8,105.7L89.3,106.6Z" style="fill-rule:nonzero;"/>
        <path d="M113.9,143.2C103,143.2 95.7,134 95.7,125.4L95.7,100.9L132.1,100.9L132.1,125.4C132.1,134 124.8,143.2 113.9,143.2Z" style="fill:white;fill-rule:nonzero;"/>
        <path d="M124,125.4C124,129.6 120.2,135.1 113.9,135.1C107.6,135.1 103.8,129.5 103.8,125.4L103.8,109L124,109L124,125.4ZM97,102.1L97,125.4C97,133.4 103.8,142 114,142C124.2,142 131,133.4 131,125.4L131,102.1L97,102.1Z" style="fill:rgb(219,31,40);fill-rule:nonzero;"/>
        <path d="M99.5,107.4C99.5,106.1 100.5,105.8 100.5,105.8C100.5,105.8 101.5,106.1 101.5,107.4L99.5,107.4ZM102.7,107.4L102.5,105.9C102.7,105.9 102.9,105.7 102.9,105.5C102.9,105.3 102.7,105.1 102.5,105.1L102.5,104.4L102.6,104.4C102.6,104.4 102.7,104.4 102.7,104.3L102.7,103.8L102.5,103.8L102.5,104L102.2,104L102.2,103.8L101.9,103.8L101.9,104L101.6,104L101.6,103.8L101.4,103.8L101.4,104.3C101.4,104.3 101.4,104.4 101.5,104.4L101.6,104.4L101.6,105.1L101,105.1L100.9,103.6L101,103.6C101,103.6 101.1,103.6 101.1,103.5L101.1,103L100.9,103L100.9,103.2L100.6,103.2L100.6,103L100.4,103L100.4,103.2L100.1,103.2L100.1,103L99.9,103L99.9,103.5C99.9,103.5 99.9,103.6 100,103.6L100.1,103.6L100,105.1L99.6,105.1L99.6,104.4L99.7,104.4C99.7,104.4 99.8,104.4 99.8,104.3L99.8,103.8L99.6,103.8L99.6,104L99.3,104L99.3,103.8L99.1,103.8L99.1,104L98.8,104L98.8,103.8L98.6,103.8L98.6,104.3C98.6,104.3 98.6,104.4 98.7,104.4L98.8,104.4L98.8,105.1C98.6,105.1 98.4,105.3 98.4,105.5C98.4,105.7 98.6,105.9 98.8,105.9L98.7,107.5L98.6,107.5C98.4,107.5 98.2,107.7 98.2,107.9C98.2,108.1 98.4,108.3 98.6,108.3L103,108.3C103.2,108.3 103.4,108.1 103.4,107.9C103.1,107.6 102.9,107.4 102.7,107.4Z" style="fill:rgb(247,237,59);"/>
        <path d="M113,107.4C113.1,106.1 114,105.8 114,105.8C114,105.8 115,106.1 115.1,107.4L113,107.4ZM116.2,107.4L116,105.9C116.2,105.9 116.4,105.7 116.4,105.5C116.4,105.3 116.2,105.1 116,105.1L115.9,105.1L115.9,104.4L116,104.4C116,104.4 116.1,104.4 116.1,104.3L116.1,103.8L115.9,103.8L115.9,104L115.6,104L115.6,103.8L115.4,103.8L115.4,104L115,104L115,103.8L114.8,103.8L114.8,104.3C114.8,104.3 114.8,104.4 114.9,104.4L115.1,104.4L115.1,105.1L114.7,105.1L114.6,103.6L114.7,103.6C114.7,103.6 114.8,103.6 114.8,103.5L114.8,103L114.6,103L114.6,103.2L114.3,103.2L114.3,103L114.1,103L114.1,103.2L113.8,103.2L113.8,103L113.6,103L113.6,103.5C113.6,103.5 113.6,103.6 113.7,103.6L113.8,103.6L113.7,105.1L113,105.1L112.9,104.4L113,104.4C113,104.4 113.1,104.4 113.1,104.3L113.1,103.8L113,103.8L113,104L112.7,104L112.7,103.8L112.5,103.8L112.5,104L112.2,104L112.2,103.8L112,103.8L112,104.3C112,104.3 112,104.4 112.1,104.4L112.2,104.4L112.2,105.1C112,105.1 111.8,105.3 111.8,105.5C111.8,105.7 112,105.9 112.2,105.9L112,107.5L111.9,107.5C111.7,107.5 111.5,107.7 111.5,107.9C111.5,108.1 111.7,108.3 111.9,108.3L116.3,108.3C116.5,108.3 116.7,108.1 116.7,107.9C116.6,107.6 116.4,107.4 116.2,107.4Z" style="fill:rgb(247,237,59);"/>
        <path d="M126.3,107.4C126.3,106.1 127.3,105.8 127.3,105.8C127.3,105.8 128.3,106.1 128.3,107.4L126.3,107.4ZM129.6,107.4L129.399,105.9C129.6,105.9 129.8,105.7 129.8,105.5C129.8,105.3 129.6,105.1 129.399,105.1L129.399,104.4L129.5,104.4C129.5,104.4 129.6,104.4 129.6,104.3L129.6,103.8L129.399,103.8L129.399,104L129.1,104L129.1,103.8L128.899,103.8L128.899,104L128.6,104L128.6,103.8L128.399,103.8L128.399,104.3C128.399,104.3 128.399,104.4 128.5,104.4L128.6,104.4L128.6,105.1L128.2,105.1L128.1,103.6L128.2,103.6C128.2,103.6 128.3,103.6 128.3,103.5L128.3,103L128.1,103L128.1,103.2L127.8,103.2L127.8,103L127.6,103L127.6,103.2L127.3,103.2L127.3,103L127.1,103L127.1,103.5C127.1,103.5 127.1,103.6 127.2,103.6L127.3,103.6L127.2,105.1L126.8,105.1L126.8,104.4L126.9,104.4C126.9,104.4 127,104.4 127,104.3L127,103.8L126.8,103.8L126.8,104L126,104L126,103.8L125.8,103.8L125.8,104L125.5,104L125.5,103.8L125.3,103.8L125.3,104.3C125.3,104.3 125.3,104.4 125.4,104.4L125.5,104.4L125.5,105.1C125.3,105.1 125.1,105.3 125.1,105.5C125.1,105.7 125.2,105.9 125.4,105.9L125.3,107.5L125.2,107.5C125,107.5 124.8,107.7 124.8,107.9C124.8,108.1 125,108.3 125.2,108.3L129.6,108.3C129.8,108.3 130,108.1 130,107.9C130,107.6 129.8,107.4 129.6,107.4Z" style="fill:rgb(247,237,59);"/>
        <path d="M99.5,121.3C99.5,120 100.5,119.7 100.5,119.7C100.5,119.7 101.5,120 101.5,121.3L99.5,121.3ZM102.7,121.3L102.5,119.7C102.7,119.7 102.9,119.5 102.9,119.3C102.9,119.1 102.7,118.9 102.5,118.9L102.5,118.2L102.6,118.2C102.6,118.2 102.7,118.2 102.7,118.1L102.7,117.6L102.5,117.6L102.5,117.8L102.2,117.8L102.2,117.6L101.9,117.6L101.9,117.8L101.6,117.8L101.6,117.6L101.4,117.6L101.4,118.1C101.4,118.1 101.4,118.2 101.5,118.2L101.6,118.2L101.6,118.9L101,118.9L100.9,117.4L101,117.4C101,117.4 101.1,117.4 101.1,117.3L101.1,116.8L100.9,116.8L100.9,117L100.6,117L100.6,116.8L100.4,116.8L100.4,117L100.1,117L100.1,116.8L99.9,116.8L99.9,117.3C99.9,117.3 99.9,117.4 100,117.4L100.1,117.4L100,118.9L99.6,118.9L99.6,118.2L99.7,118.2C99.7,118.2 99.8,118.2 99.8,118.1L99.8,117.6L99.6,117.6L99.6,117.8L99.3,117.8L99.3,117.6L99.1,117.6L99.1,117.8L98.8,117.8L98.8,117.6L98.6,117.6L98.6,118.1C98.6,118.1 98.6,118.2 98.7,118.2L98.8,118.2L98.8,118.9C98.6,118.9 98.4,119.1 98.4,119.3C98.4,119.5 98.6,119.6 98.8,119.7L98.7,121.3L98.6,121.3C98.4,121.3 98.2,121.5 98.2,121.7C98.2,121.9 98.4,122.1 98.6,122.1L103,122.1C103.2,122.1 103.4,121.9 103.4,121.7C103.1,121.5 102.9,121.3 102.7,121.3Z" style="fill:rgb(247,237,59);"/>
        <path d="M126.3,121.3C126.3,120 127.3,119.7 127.3,119.7C127.3,119.7 128.3,120 128.3,121.3L126.3,121.3ZM129.6,121.3L129.399,119.7C129.6,119.7 129.8,119.5 129.8,119.3C129.8,119.1 129.6,118.9 129.399,118.9L129.399,118.2L129.5,118.2C129.5,118.2 129.6,118.2 129.6,118.1L129.6,117.6L129.399,117.6L129.399,117.8L129.1,117.8L129.1,117.6L128.899,117.6L128.899,117.8L128.6,117.8L128.6,117.6L128.399,117.6L128.399,118.1C128.399,118.1 128.399,118.2 128.5,118.2L128.6,118.2L128.6,118.9L128.2,118.9L128.1,117.4L128.2,117.4C128.2,117.4 128.3,117.4 128.3,117.3L128.3,116.8L128.1,116.8L128.1,117L127.8,117L127.8,116.8L127.6,116.8L127.6,117L127.3,117L127.3,116.8L127.1,116.8L127.1,117.3C127.1,117.3 127.1,117.4 127.2,117.4L127.3,117.4L127.2,118.9L126.8,118.9L126.8,118.2L126.9,118.2C126.9,118.2 127,118.2 127,118.1L127,117.6L126.8,117.6L126.8,117.8L126,117.8L126,117.6L125.8,117.6L125.8,117.8L125.5,117.8L125.5,117.6L125.3,117.6L125.3,118.1C125.3,118.1 125.3,118.2 125.4,118.2L125.5,118.2L125.5,118.9C125.3,118.9 125.1,119.1 125.1,119.3C125.1,119.5 125.2,119.6 125.4,119.7L125.3,121.3L125.2,121.3C125,121.3 124.8,121.5 124.8,121.7C124.8,121.9 125,122.1 125.2,122.1L129.6,122.1C129.8,122.1 130,121.9 130,121.7C130,121.5 129.8,121.3 129.6,121.3Z" style="fill:rgb(247,237,59);"/>
        <path d="M104.3,135.8C103.4,134.8 103.9,133.9 103.9,133.9C103.9,133.9 104.8,133.4 105.8,134.3L104.3,135.8ZM106.6,133.5L105.4,132.6C105.5,132.4 105.5,132.2 105.4,132.1C105.2,132 105,132 104.9,132.1L104.4,131.6L104.5,131.5L104.5,131.4L104.2,131.1L104,131.3L104.2,131.5L104,131.7L103.8,131.5L103.6,131.7L103.8,131.9L103.6,132.1L103.5,131.9L103.3,132.1L103.6,132.4L103.7,132.4L103.8,132.3L104.3,132.8L104,133.1L102.9,132.1L103,132L103,131.9L102.7,131.6L102.5,131.8L102.7,132L102.5,132.2L102.3,132L102.1,132.2L102.3,132.4L102.1,132.6L101.9,132.4L101.7,132.6L102,132.9L102.1,132.9L102.2,132.8L103.2,133.9L102.9,134.2L102.4,133.8L102.5,133.7L102.5,133.6L102.1,133.3L101.9,133.5L102.1,133.7L101.9,133.9L101.7,133.7L101.5,133.9L101.7,134.1L101.5,134.3L101.3,134.1L101.1,134.3L101.4,134.6L101.5,134.6L101.6,134.5L102.1,135C101.9,135.2 101.9,135.4 102.1,135.5C102.2,135.6 102.5,135.6 102.6,135.5L103.6,136.7L103.5,136.8C103.3,136.9 103.3,137.2 103.5,137.3C103.7,137.5 103.9,137.5 104.1,137.3L107.2,134.2C107.3,134 107.3,133.8 107.2,133.7C107,133.3 106.8,133.3 106.6,133.5Z" style="fill:rgb(247,237,59);"/>
        <path d="M122.3,134.3C123.3,133.4 124.2,133.9 124.2,133.9C124.2,133.9 124.7,134.8 123.8,135.8L122.3,134.3ZM120.9,133.5C120.8,133.6 120.8,133.9 120.9,134L124,137.1C124.1,137.3 124.4,137.3 124.6,137.1C124.7,136.9 124.7,136.7 124.6,136.6L124.5,136.5L125.5,135.3C125.7,135.4 125.9,135.4 126,135.3C126.2,135.2 126.2,134.9 126,134.8L126.4,134.3L126.5,134.4L126.6,134.4L126.9,134.1L126.7,133.9L126.5,134.1L126.3,133.9L126.5,133.7L126.3,133.5L126.1,133.7L125.9,133.5L126.1,133.3L125.9,133.1L125.6,133.4L125.6,133.5L125.7,133.6L125.2,134L124.9,133.7L125.9,132.6L126,132.7L126.1,132.7L126.4,132.4L126.2,132.2L126,132.4L125.8,132.2L126,132L125.8,131.8L125.6,132L125.4,131.8L125.6,131.6L125.4,131.4L125.1,131.7L125.1,131.8L125.2,131.9L124.1,132.9L123.8,132.6L124.3,132.1L124.4,132.2L124.5,132.2L124.9,131.9L124.7,131.7L124.5,131.9L124.3,131.7L124.5,131.5L124.3,131.3L124.1,131.5L123.9,131.3L124.1,131.1L123.9,130.9L123.6,131.2L123.6,131.3L123.7,131.4L123.2,131.9C123,131.8 122.8,131.8 122.6,131.9C122.5,132.1 122.5,132.3 122.6,132.4L121.4,133.4L121.4,133.3C121.3,133.3 121.1,133.3 120.9,133.5Z" style="fill:rgb(247,237,59);"/>
        <path d="M115.2,130C115,130 114.8,130.2 114.8,130.4C114.8,130.7 115,130.9 115.2,130.9C115.4,130.9 115.6,130.7 115.6,130.4C115.6,130.2 115.4,130 115.2,130Z" style="fill:white;"/>
        <path d="M112.8,130C112.6,130 112.4,130.2 112.4,130.4C112.4,130.6 112.6,130.8 112.8,130.8C113.1,130.8 113.3,130.6 113.3,130.4C113.2,130.2 113,130 112.8,130Z" style="fill:white;"/>
        <path d="M113.9,117C114.9,117 116.1,116.2 116.1,114.6L116.1,111.4L111.6,111.4L111.6,114.6C111.7,116.2 113,117 113.9,117Z" style="fill:rgb(20,39,77);fill-rule:nonzero;"/>
        <path d="M113.3,112.7C113.3,112.4 113.1,112.2 112.8,112.2C112.5,112.2 112.3,112.4 112.3,112.7C112.3,113 112.5,113.2 112.8,113.2C113.1,113.2 113.3,113 113.3,112.7Z" style="fill:white;"/>
        <path d="M114.5,113.9C114.5,113.6 114.3,113.4 114,113.4C113.7,113.4 113.5,113.6 113.5,113.9C113.5,114.2 113.7,114.4 114,114.4C114.2,114.4 114.5,114.1 114.5,113.9Z" style="fill:white;"/>
        <path d="M115.6,115C115.6,114.7 115.4,114.5 115.1,114.5C114.8,114.5 114.6,114.7 114.6,115C114.6,115.3 114.8,115.5 115.1,115.5C115.4,115.5 115.6,115.3 115.6,115Z" style="fill:white;"/>
        <path d="M115.1,113.2C115.4,113.2 115.6,113 115.6,112.7C115.6,112.4 115.4,112.2 115.1,112.2C114.8,112.2 114.6,112.4 114.6,112.7C114.6,113 114.8,113.2 115.1,113.2Z" style="fill:white;"/>
        <path d="M112.8,115.5C113.1,115.5 113.3,115.3 113.3,115C113.3,114.7 113.1,114.5 112.8,114.5C112.5,114.5 112.3,114.7 112.3,115C112.3,115.3 112.5,115.5 112.8,115.5Z" style="fill:white;"/>
        <path d="M113.9,124.8C114.9,124.8 116.1,124 116.1,122.4L116.1,119.2L111.6,119.2L111.6,122.4C111.7,124 113,124.8 113.9,124.8Z" style="fill:rgb(20,39,77);fill-rule:nonzero;"/>
        <path d="M113.3,120.4C113.3,120.1 113.1,119.9 112.8,119.9C112.5,119.9 112.3,120.1 112.3,120.4C112.3,120.7 112.5,120.9 112.8,120.9C113.1,120.9 113.3,120.7 113.3,120.4Z" style="fill:white;"/>
        <path d="M114.5,121.6C114.5,121.3 114.3,121.1 114,121.1C113.7,121.1 113.5,121.3 113.5,121.6C113.5,121.9 113.7,122.1 114,122.1C114.2,122.1 114.5,121.9 114.5,121.6Z" style="fill:white;"/>
        <path d="M115.6,122.7C115.6,122.4 115.4,122.2 115.1,122.2C114.8,122.2 114.6,122.4 114.6,122.7C114.6,123 114.8,123.2 115.1,123.2C115.4,123.2 115.6,123 115.6,122.7Z" style="fill:white;"/>
        <path d="M115.1,120.9C115.4,120.9 115.6,120.7 115.6,120.4C115.6,120.1 115.4,119.9 115.1,119.9C114.8,119.9 114.6,120.1 114.6,120.4C114.6,120.7 114.8,120.9 115.1,120.9Z" style="fill:white;"/>
        <path d="M112.8,123.2C113.1,123.2 113.3,123 113.3,122.7C113.3,122.4 113.1,122.2 112.8,122.2C112.5,122.2 112.3,122.4 112.3,122.7C112.3,123 112.5,123.2 112.8,123.2Z" style="fill:white;"/>
        <path d="M107.8,124.8C108.8,124.8 110,124 110,122.4L110,119.2L105.5,119.2L105.5,122.4C105.5,124 106.8,124.8 107.8,124.8Z" style="fill:rgb(20,39,77);fill-rule:nonzero;"/>
        <path d="M107.1,120.4C107.1,120.1 106.9,119.9 106.6,119.9C106.3,119.9 106.1,120.1 106.1,120.4C106.1,120.7 106.3,120.9 106.6,120.9C106.9,120.9 107.1,120.7 107.1,120.4Z" style="fill:white;"/>
        <path d="M108.3,121.6C108.3,121.3 108.1,121.1 107.8,121.1C107.5,121.1 107.3,121.3 107.3,121.6C107.3,121.9 107.5,122.1 107.8,122.1C108,122.1 108.3,121.9 108.3,121.6Z" style="fill:white;"/>
        <path d="M109.4,122.7C109.4,122.4 109.2,122.2 108.9,122.2C108.6,122.2 108.4,122.4 108.4,122.7C108.4,123 108.6,123.2 108.9,123.2C109.2,123.2 109.4,123 109.4,122.7Z" style="fill:white;"/>
        <path d="M108.9,120.9C109.2,120.9 109.4,120.7 109.4,120.4C109.4,120.1 109.2,119.9 108.9,119.9C108.6,119.9 108.4,120.1 108.4,120.4C108.4,120.7 108.6,120.9 108.9,120.9Z" style="fill:white;"/>
        <path d="M106.6,123.2C106.9,123.2 107.1,123 107.1,122.7C107.1,122.4 106.9,122.2 106.6,122.2C106.3,122.2 106.1,122.4 106.1,122.7C106.1,123 106.3,123.2 106.6,123.2Z" style="fill:white;"/>
        <path d="M120.1,124.8C121.1,124.8 122.4,124 122.4,122.4L122.4,119.2L117.9,119.2L117.9,122.4C117.9,124 119.2,124.8 120.1,124.8Z" style="fill:rgb(20,39,77);fill-rule:nonzero;"/>
        <path d="M119.5,120.4C119.5,120.1 119.3,119.9 119,119.9C118.7,119.9 118.5,120.1 118.5,120.4C118.5,120.7 118.7,120.9 119,120.9C119.3,120.9 119.5,120.7 119.5,120.4Z" style="fill:white;"/>
        <path d="M120.6,121.6C120.6,121.3 120.4,121.1 120.1,121.1C119.8,121.1 119.6,121.3 119.6,121.6C119.6,121.9 119.8,122.1 120.1,122.1C120.4,122.1 120.6,121.9 120.6,121.6Z" style="fill:white;"/>
        <path d="M121.8,122.7C121.8,122.4 121.6,122.2 121.3,122.2C121,122.2 120.8,122.4 120.8,122.7C120.8,123 121,123.2 121.3,123.2C121.6,123.2 121.8,123 121.8,122.7Z" style="fill:white;"/>
        <path d="M121.3,120.9C121.6,120.9 121.8,120.7 121.8,120.4C121.8,120.1 121.6,119.9 121.3,119.9C121,119.9 120.8,120.1 120.8,120.4C120.8,120.7 121,120.9 121.3,120.9Z" style="fill:white;"/>
        <path d="M119,123.2C119.3,123.2 119.5,123 119.5,122.7C119.5,122.4 119.3,122.2 119,122.2C118.7,122.2 118.5,122.4 118.5,122.7C118.5,123 118.7,123.2 119,123.2Z" style="fill:white;"/>
        <path d="M113.9,132.5C114.9,132.5 116.1,131.7 116.1,130.1L116.1,126.9L111.6,126.9L111.6,130.1C111.7,131.7 113,132.5 113.9,132.5Z" style="fill:rgb(20,39,77);fill-rule:nonzero;"/>
        <path d="M113.3,128.2C113.3,127.9 113.1,127.7 112.8,127.7C112.5,127.7 112.3,127.9 112.3,128.2C112.3,128.5 112.5,128.7 112.8,128.7C113.1,128.7 113.3,128.4 113.3,128.2Z" style="fill:white;"/>
        <path d="M114.5,129.3C114.5,129 114.3,128.8 114,128.8C113.7,128.8 113.5,129 113.5,129.3C113.5,129.6 113.7,129.8 114,129.8C114.2,129.8 114.5,129.6 114.5,129.3Z" style="fill:white;"/>
        <path d="M115.6,130.4C115.6,130.1 115.4,129.9 115.1,129.9C114.8,129.9 114.6,130.1 114.6,130.4C114.6,130.7 114.8,130.9 115.1,130.9C115.4,131 115.6,130.7 115.6,130.4Z" style="fill:white;"/>
        <path d="M115.1,128.7C115.4,128.7 115.6,128.5 115.6,128.2C115.6,127.9 115.4,127.7 115.1,127.7C114.8,127.7 114.6,127.9 114.6,128.2C114.6,128.4 114.8,128.7 115.1,128.7Z" style="fill:white;"/>
        <path d="M112.8,131C113.1,131 113.3,130.8 113.3,130.5C113.3,130.2 113.1,130 112.8,130C112.5,130 112.3,130.2 112.3,130.5C112.3,130.7 112.5,131 112.8,131Z" style="fill:white;"/>
        <path d="M221.6,105.5C220.4,104.6 218.7,104.2 216.3,104.2L214.7,104.2C214.2,104.2 213.7,104.2 213.3,104.3L213.3,115.4C213.6,115.4 213.9,115.5 214.4,115.5L216,115.5C218.3,115.5 220.1,115 221.4,113.9C222.7,112.8 223.3,111.4 223.3,109.7C223.4,107.8 222.8,106.4 221.6,105.5ZM223.7,134.9L214.2,119.7L213.3,119.7L213.3,130.8C214.6,130.9 215.8,131.1 216.9,131.4L216.9,134.9L203.2,134.9L203.2,131.5C203.9,131.3 204.6,131.2 205.4,131.1C206.2,131 206.9,130.9 207.7,130.8L207.7,103.9C206.9,103.8 206.1,103.7 205.4,103.6C204.6,103.5 203.9,103.4 203.2,103.2L203.2,99.8L208.8,99.8C209.5,99.8 210.2,99.8 211.1,99.7C212,99.7 212.9,99.6 214,99.6L217.1,99.6C218.9,99.6 220.6,99.8 222.1,100.1C223.6,100.4 224.9,101 226,101.7C227.1,102.4 227.9,103.4 228.5,104.6C229.1,105.8 229.4,107.3 229.4,109C229.4,110.3 229.2,111.5 228.7,112.6C228.2,113.7 227.6,114.6 226.8,115.5C226,116.3 225,117 223.9,117.5C222.8,118 221.5,118.4 220.2,118.6C220.6,119.1 220.9,119.5 221.3,120C221.6,120.5 222,121 222.3,121.5L228.4,130.6C229,130.7 229.5,130.8 230.2,130.9C230.8,131 231.5,131.1 232.2,131.3L232.2,134.8L223.7,134.9Z" style="fill:rgb(18,24,23);fill-rule:nonzero;"/>
        <path d="M234.3,134.9L234.3,131.5C235,131.3 235.7,131.2 236.5,131.1C237.3,131 238,130.9 238.8,130.8L238.8,103.9C238,103.8 237.2,103.7 236.5,103.6C235.7,103.5 235,103.4 234.3,103.2L234.3,99.8L257.5,99.8L257.5,108.2L253.4,108.2C253.3,107.5 253.1,106.8 253,106.1C252.9,105.4 252.8,104.8 252.7,104.3L244.3,104.3L244.3,114.9L251,114.9C251.1,114.3 251.2,113.7 251.3,113.2C251.4,112.7 251.5,112.2 251.7,111.7L255.2,111.7L255.2,122.3L251.7,122.3C251.5,121.8 251.4,121.3 251.3,120.7C251.2,120.1 251.1,119.6 251,119.1L244.3,119.1L244.3,130.5L252.7,130.5C252.8,129.9 252.9,129.2 253,128.5C253.1,127.8 253.2,127.1 253.4,126.3L257.5,126.3L257.5,135L234.3,134.9Z" style="fill:rgb(18,24,23);fill-rule:nonzero;"/>
        <path d="M280.8,105.9C279.6,104.8 277.7,104.2 275.2,104.2L273.7,104.2C273.2,104.2 272.8,104.2 272.3,104.3L272.3,117.1C272.7,117.2 273.1,117.2 273.5,117.3C273.9,117.3 274.3,117.4 274.7,117.4C277.1,117.4 279,116.8 280.4,115.6C281.8,114.4 282.5,112.8 282.5,110.7C282.5,108.6 281.9,107.1 280.8,105.9ZM287.5,114.9C286.9,116.4 285.9,117.6 284.7,118.7C283.5,119.8 282.1,120.6 280.4,121.2C278.7,121.8 276.9,122.1 274.8,122.1L273.6,122.1C273.1,122.1 272.7,122.1 272.2,122L272.2,130.8C273,130.9 273.8,131 274.5,131.1C275.3,131.2 276,131.3 276.7,131.5L276.7,134.9L262,134.9L262,131.5C262.7,131.3 263.4,131.2 264.2,131.1C265,131 265.7,130.9 266.5,130.8L266.5,103.9C265.7,103.8 264.9,103.7 264.2,103.6C263.4,103.5 262.7,103.4 262,103.2L262,99.8L267.7,99.8C268.4,99.8 269.2,99.8 270.1,99.7C271,99.7 271.9,99.6 272.8,99.6L275.6,99.6C279.8,99.6 283,100.5 285.2,102.4C287.4,104.3 288.5,106.9 288.5,110.1C288.4,111.9 288.1,113.5 287.5,114.9Z" style="fill:rgb(18,24,23);fill-rule:nonzero;"/>
        <path d="M307,97.3L304.9,94.1L313.1,88.4L315.6,92.2L307,97.3ZM321.6,103.9L321.6,121.5C321.6,126.2 320.4,129.7 318,132C315.6,134.3 312.1,135.4 307.4,135.4C304.6,135.4 302.4,135.1 300.6,134.4C298.9,133.7 297.5,132.8 296.5,131.6C295.5,130.4 294.9,129.1 294.5,127.6C294.1,126.1 294,124.6 294,122.9L294,103.9C293.4,103.8 292.8,103.7 292.2,103.6C291.6,103.5 291.1,103.4 290.5,103.2L290.5,99.7L303.5,99.7L303.5,103.2C302.9,103.4 302.2,103.5 301.6,103.6C301,103.7 300.3,103.8 299.6,103.8L299.6,122.4C299.6,123.6 299.7,124.7 299.9,125.7C300.1,126.7 300.5,127.6 301.1,128.3C301.7,129 302.5,129.6 303.6,130C304.7,130.4 306,130.6 307.6,130.6C309,130.6 310.3,130.4 311.3,130.1C312.3,129.8 313.2,129.3 313.9,128.6C314.6,127.9 315.1,127 315.4,125.8C315.7,124.7 315.9,123.3 315.9,121.6L315.9,103.7C315.2,103.6 314.6,103.6 313.9,103.5C313.2,103.4 312.6,103.3 312,103.1L312,99.6L325,99.6L325,103.1C324,103.6 322.8,103.8 321.6,103.9Z" style="fill:rgb(18,24,23);fill-rule:nonzero;"/>
        <path d="M349.8,121.9C349.4,121.2 348.8,120.6 348,120.2C347.3,119.8 346.4,119.5 345.3,119.3C344.2,119.1 343.1,119 341.9,119L338.7,119L338.7,130.2C339.7,130.4 341,130.5 342.8,130.5C345.4,130.5 347.3,129.9 348.5,128.8C349.7,127.7 350.3,126.2 350.3,124.5C350.5,123.4 350.2,122.6 349.8,121.9ZM349.5,107.1C349.3,106.5 348.9,106 348.4,105.6C347.9,105.2 347.2,104.8 346.3,104.6C345.5,104.4 344.4,104.2 343.2,104.2L340.9,104.2C340.2,104.2 339.5,104.2 338.8,104.3L338.8,114.7C339.3,114.7 339.7,114.8 340.2,114.8L341.8,114.8C344.4,114.8 346.4,114.3 347.8,113.3C349.2,112.3 349.8,110.9 349.8,109.1C349.8,108.4 349.7,107.7 349.5,107.1ZM355.8,127.9C355.4,129.2 354.6,130.3 353.6,131.4C352.6,132.5 351.2,133.3 349.4,134C347.6,134.7 345.4,135 342.7,135C341.6,135 340.3,135 338.6,134.9C336.9,134.8 335.1,134.8 333.2,134.8L328.7,134.8L328.7,131.4C329.4,131.2 330.1,131.1 330.9,131C331.7,130.9 332.4,130.8 333.2,130.7L333.2,103.8C332.4,103.7 331.6,103.6 330.9,103.5C330.1,103.4 329.4,103.3 328.7,103.1L328.7,99.7L333.1,99.7C334.4,99.7 336.1,99.7 338.1,99.6C340.1,99.5 342.1,99.5 344.3,99.5C348.1,99.5 351,100.2 353,101.7C354.9,103.2 355.9,105.3 355.9,108C355.9,109.8 355.4,111.4 354.3,112.9C353.2,114.4 351.8,115.4 350,116L350,116.1C351.1,116.3 352.1,116.7 353,117.2C353.8,117.7 354.5,118.3 355.1,119.1C355.6,119.8 356,120.6 356.3,121.5C356.6,122.4 356.7,123.3 356.7,124.2C356.4,125.5 356.2,126.7 355.8,127.9Z" style="fill:rgb(18,24,23);fill-rule:nonzero;"/>
        <path d="M360.5,134.9L360.5,131.5C361.2,131.3 361.9,131.2 362.7,131.1C363.5,131 364.2,130.9 365,130.8L365,103.9C364.2,103.8 363.4,103.7 362.7,103.6C361.9,103.5 361.2,103.4 360.5,103.2L360.5,99.8L375.2,99.8L375.2,103.2C374.5,103.4 373.8,103.5 373,103.6C372.2,103.7 371.5,103.8 370.7,103.9L370.7,130.2L378.7,130.2C378.9,128.8 379.1,127.3 379.4,125.7L383.5,125.7L383.5,134.9L360.5,134.9Z" style="fill:rgb(18,24,23);fill-rule:nonzero;"/>
        <path d="M385.4,134.9L385.4,131.5C386.1,131.3 386.8,131.2 387.6,131.1C388.4,131 389.1,130.9 389.9,130.8L389.9,103.9C389.1,103.8 388.3,103.7 387.6,103.6C386.8,103.5 386.1,103.4 385.4,103.2L385.4,99.8L400.1,99.8L400.1,103.2C399.4,103.4 398.7,103.5 397.9,103.6C397.1,103.7 396.4,103.8 395.6,103.9L395.6,130.8C396.4,130.9 397.2,131 397.9,131.1C398.7,131.2 399.4,131.3 400.1,131.5L400.1,134.9L385.4,134.9Z" style="fill:rgb(18,24,23);fill-rule:nonzero;"/>
        <path d="M425.2,109.7C425,108.8 424.9,108 424.8,107.3C424.7,106.6 424.6,105.8 424.6,105.1C423.8,104.9 423,104.8 422.3,104.7C421.6,104.6 420.9,104.6 420.1,104.6C418.4,104.6 416.9,104.9 415.7,105.6C414.5,106.3 413.4,107.1 412.5,108.3C411.7,109.4 411,110.8 410.6,112.4C410.2,114 410,115.7 410,117.6C410,119.6 410.2,121.4 410.7,123C411.1,124.6 411.8,125.9 412.8,127C413.7,128.1 414.9,128.9 416.4,129.5C417.9,130.1 419.6,130.4 421.7,130.4C423,130.4 424.4,130.3 425.8,130C427.2,129.7 428.5,129.3 429.6,128.8L430,134C428.5,134.5 427,134.9 425.4,135.2C423.8,135.5 422.2,135.6 420.5,135.6C415,135.6 410.9,134.1 408.1,131.1C405.3,128.1 404,123.9 404,118.6C404,115.8 404.4,113.3 405.1,111C405.8,108.7 406.9,106.7 408.3,105C409.7,103.3 411.6,102 413.8,101.1C416,100.2 418.6,99.7 421.6,99.7C422.9,99.7 424.3,99.8 425.7,100C427.1,100.2 428.5,100.4 429.8,100.7L429.8,110L425.2,110L425.2,109.7Z" style="fill:rgb(18,24,23);fill-rule:nonzero;"/>
        <path d="M451.4,110.9C451.1,110 450.8,109.1 450.5,108.2C450.3,107.3 450,106.4 449.8,105.4L449.7,105.4C449.5,106.3 449.3,107.2 449,108.2C448.7,109.1 448.4,110.1 448.1,111L444.3,121.5L455.3,121.5L451.4,110.9ZM454.6,134.9L454.6,131.5C455.2,131.4 455.8,131.2 456.5,131.1C457.2,131 457.9,130.9 458.5,130.8L456.7,125.9L442.8,125.9L441,130.8C441.7,130.9 442.3,131 443,131.1C443.7,131.2 444.3,131.3 444.9,131.5L444.9,134.9L432.3,134.9L432.3,131.5C432.8,131.4 433.2,131.2 433.8,131.2C434.4,131.2 434.8,131 435.3,131L446.5,99.9L453.3,99.9L464.6,131C465.1,131.1 465.6,131.1 466.1,131.2C466.6,131.3 467.1,131.4 467.6,131.5L467.6,134.9L454.6,134.9Z" style="fill:rgb(18,24,23);fill-rule:nonzero;"/>
        <path d="M221.9,149.9C220.7,148.8 218.8,148.2 216.3,148.2L214.8,148.2C214.3,148.2 213.9,148.2 213.4,148.3L213.4,161.1C213.8,161.2 214.2,161.2 214.6,161.3C215,161.3 215.4,161.4 215.8,161.4C218.2,161.4 220.1,160.8 221.5,159.6C222.9,158.4 223.6,156.8 223.6,154.7C223.7,152.6 223.1,151.1 221.9,149.9ZM228.6,158.9C228,160.4 227,161.6 225.8,162.7C224.6,163.8 223.2,164.6 221.5,165.2C219.8,165.8 218,166.1 215.9,166.1L214.7,166.1C214.2,166.1 213.8,166.1 213.3,166L213.3,174.8C214.1,174.9 214.9,175 215.6,175.1C216.4,175.2 217.1,175.3 217.8,175.5L217.8,178.9L203.1,178.9L203.1,175.5C203.8,175.3 204.5,175.2 205.3,175.1C206.1,175 206.8,174.9 207.6,174.8L207.6,147.9C206.8,147.8 206,147.7 205.3,147.6C204.5,147.5 203.8,147.4 203.1,147.2L203.1,143.8L208.8,143.8C209.5,143.8 210.3,143.8 211.2,143.7C212.1,143.7 213,143.6 213.9,143.6L216.7,143.6C220.9,143.6 224.1,144.5 226.3,146.4C228.5,148.3 229.6,150.9 229.6,154.1C229.6,155.9 229.2,157.5 228.6,158.9Z" style="fill:rgb(18,24,23);fill-rule:nonzero;"/>
        <path d="M256.4,151.7C254.6,149.4 252.1,148.3 248.7,148.3C247.3,148.3 246,148.6 244.8,149.1C243.6,149.6 242.4,150.4 241.5,151.5C240.6,152.6 239.8,153.9 239.2,155.5C238.6,157.1 238.3,159 238.3,161.1C238.3,163.1 238.5,164.9 238.9,166.5C239.3,168.1 239.9,169.6 240.8,170.7C241.6,171.9 242.7,172.8 244,173.4C245.3,174 246.8,174.4 248.5,174.4C249.8,174.4 251.1,174.1 252.3,173.6C253.6,173.1 254.7,172.3 255.7,171.2C256.7,170.1 257.5,168.8 258.1,167.2C258.7,165.6 259,163.7 259,161.5C259.1,157.2 258.2,153.9 256.4,151.7ZM263.7,168.7C262.8,171 261.6,172.9 260.1,174.5C258.6,176.1 256.799,177.3 254.7,178.1C252.7,178.9 250.5,179.3 248.1,179.3C245.4,179.3 243.1,178.9 241.1,178.1C239.1,177.3 237.5,176.1 236.2,174.5C234.9,173 233.9,171.1 233.3,168.9C232.7,166.7 232.3,164.3 232.3,161.6C232.3,158.7 232.7,156.1 233.6,153.8C234.5,151.5 235.7,149.6 237.2,148C238.7,146.4 240.5,145.2 242.6,144.4C244.6,143.6 246.8,143.2 249.2,143.2C251.6,143.2 253.7,143.6 255.6,144.3C257.5,145 259.2,146.1 260.6,147.6C262,149.1 263.1,150.9 263.8,153.1C264.6,155.3 264.9,157.9 264.9,160.8C265.1,163.8 264.6,166.4 263.7,168.7Z" style="fill:rgb(18,24,23);fill-rule:nonzero;"/>
        <path d="M286.8,149.5C285.6,148.6 283.9,148.2 281.5,148.2L279.9,148.2C279.4,148.2 278.9,148.2 278.5,148.3L278.5,159.4C278.8,159.4 279.1,159.5 279.6,159.5L281.2,159.5C283.5,159.5 285.3,159 286.6,157.9C287.9,156.8 288.5,155.4 288.5,153.7C288.6,151.8 288,150.4 286.8,149.5ZM288.9,178.9L279.4,163.7L278.5,163.7L278.5,174.8C279.8,174.9 281,175.1 282.1,175.4L282.1,178.9L268.4,178.9L268.4,175.5C269.1,175.3 269.8,175.2 270.6,175.1C271.4,175 272.1,174.9 272.9,174.8L272.9,147.9C272.1,147.8 271.3,147.7 270.6,147.6C269.8,147.5 269.1,147.4 268.4,147.2L268.4,143.8L274,143.8C274.7,143.8 275.4,143.8 276.3,143.7C277.2,143.7 278.1,143.6 279.2,143.6L282.3,143.6C284.1,143.6 285.8,143.8 287.3,144.1C288.8,144.4 290.1,145 291.2,145.7C292.3,146.4 293.1,147.4 293.7,148.6C294.3,149.8 294.6,151.3 294.6,153C294.6,154.3 294.4,155.5 293.9,156.6C293.4,157.7 292.8,158.6 292,159.5C291.2,160.3 290.2,161 289.1,161.5C288,162 286.7,162.4 285.4,162.6C285.8,163.1 286.1,163.5 286.5,164C286.8,164.5 287.2,165 287.5,165.5L293.6,174.6C294.2,174.7 294.7,174.8 295.4,174.9C296,175 296.7,175.1 297.4,175.3L297.4,178.8L288.9,178.9Z" style="fill:rgb(18,24,23);fill-rule:nonzero;"/>
        <path d="M322.9,153.1C322.7,152.2 322.6,151.4 322.5,150.6C322.4,149.8 322.3,149.1 322.2,148.5L315.9,148.5L315.9,174.8C316.7,174.9 317.5,175 318.2,175.1C319,175.2 319.7,175.3 320.4,175.5L320.4,178.9L305.7,178.9L305.7,175.5C306.4,175.3 307.1,175.2 307.9,175.1C308.7,175 309.4,174.9 310.2,174.8L310.2,148.5L303.8,148.5C303.7,149.2 303.6,149.9 303.5,150.6C303.4,151.4 303.3,152.2 303.1,153.1L299,153.1L299,143.8L326.9,143.8L326.9,153.1L322.9,153.1Z" style="fill:rgb(18,24,23);fill-rule:nonzero;"/>
        <path d="M360.3,147.9L360.3,165.5C360.3,170.2 359.1,173.7 356.7,176C354.3,178.3 350.8,179.4 346.1,179.4C343.3,179.4 341.1,179.1 339.3,178.4C337.6,177.7 336.2,176.8 335.2,175.6C334.2,174.4 333.6,173.1 333.2,171.6C332.8,170.1 332.7,168.6 332.7,166.9L332.7,147.9C332.1,147.8 331.5,147.7 330.9,147.6C330.3,147.5 329.8,147.4 329.2,147.2L329.2,143.7L342.2,143.7L342.2,147.2C341.6,147.4 340.9,147.5 340.3,147.6C339.6,147.7 339,147.8 338.3,147.8L338.3,166.4C338.3,167.6 338.4,168.7 338.6,169.7C338.8,170.7 339.2,171.6 339.8,172.3C340.4,173 341.2,173.6 342.3,174C343.4,174.4 344.7,174.6 346.3,174.6C347.7,174.6 349,174.4 350,174.1C351,173.8 351.9,173.3 352.6,172.6C353.3,171.9 353.8,171 354.1,169.8C354.4,168.7 354.6,167.3 354.6,165.6L354.6,147.7C353.9,147.6 353.3,147.6 352.6,147.5C351.9,147.4 351.3,147.3 350.7,147.1L350.7,143.6L363.7,143.6L363.7,147.1C362.7,147.6 361.5,147.8 360.3,147.9Z" style="fill:rgb(18,24,23);fill-rule:nonzero;"/>
        <path d="M398.1,164.7C397.6,164.8 397,164.9 396.5,164.9L396.5,177.3C394.7,178 392.8,178.5 390.8,178.9C388.8,179.3 386.7,179.4 384.7,179.4C382,179.4 379.6,179 377.4,178.2C375.2,177.4 373.4,176.3 371.9,174.8C370.4,173.3 369.2,171.5 368.4,169.4C367.6,167.3 367.2,164.8 367.2,162.1C367.2,159.4 367.6,156.8 368.5,154.5C369.4,152.2 370.7,150.2 372.3,148.5C373.9,146.8 376,145.5 378.3,144.6C380.7,143.7 383.3,143.2 386.3,143.2C387.9,143.2 389.5,143.3 391.1,143.5C392.7,143.7 394.3,144 395.9,144.4L395.9,153.2L391.7,153.2C391.5,152.4 391.4,151.6 391.3,150.9C391.2,150.2 391.1,149.4 391,148.7C390.1,148.5 389.3,148.3 388.4,148.2C387.5,148.1 386.7,148 385.8,148C384,148 382.4,148.3 380.8,148.8C379.3,149.4 377.9,150.2 376.8,151.3C375.7,152.4 374.7,153.8 374.1,155.5C373.4,157.2 373.1,159.1 373.1,161.3C373.1,165.4 374.2,168.5 376.4,170.8C378.6,173 381.6,174.1 385.3,174.1C386.3,174.1 387.3,174 388.2,173.9C389.1,173.8 390,173.6 390.8,173.3L390.8,164.7C390,164.6 389.2,164.5 388.5,164.4C387.7,164.3 387,164.2 386.4,164L386.4,160.6L399.6,160.6L399.6,164.1C399.2,164.5 398.7,164.6 398.1,164.7Z" style="fill:rgb(18,24,23);fill-rule:nonzero;"/>
        <path d="M433.3,147.9L433.3,165.5C433.3,170.2 432.1,173.7 429.7,176C427.3,178.3 423.8,179.4 419.1,179.4C416.3,179.4 414.1,179.1 412.3,178.4C410.6,177.7 409.2,176.8 408.2,175.6C407.2,174.4 406.6,173.1 406.2,171.6C405.8,170.1 405.7,168.6 405.7,166.9L405.7,147.9C405.1,147.8 404.5,147.7 403.9,147.6C403.3,147.5 402.8,147.4 402.2,147.2L402.2,143.7L415.2,143.7L415.2,147.2C414.6,147.4 413.9,147.5 413.3,147.6C412.6,147.7 412,147.8 411.3,147.8L411.3,166.4C411.3,167.6 411.4,168.7 411.6,169.7C411.8,170.7 412.2,171.6 412.8,172.3C413.4,173 414.2,173.6 415.3,174C416.4,174.4 417.7,174.6 419.3,174.6C420.7,174.6 422,174.4 423,174.1C424,173.8 424.9,173.3 425.6,172.6C426.3,171.9 426.8,171 427.1,169.8C427.4,168.7 427.6,167.3 427.6,165.6L427.6,147.7C426.9,147.6 426.3,147.6 425.6,147.5C424.9,147.4 424.3,147.3 423.7,147.1L423.7,143.6L436.7,143.6L436.7,147.1C435.7,147.6 434.5,147.8 433.3,147.9Z" style="fill:rgb(18,24,23);fill-rule:nonzero;"/>
        <path d="M440.3,178.9L440.3,175.5C441,175.3 441.7,175.2 442.5,175.1C443.3,175 444,174.9 444.8,174.8L444.8,147.9C444,147.8 443.2,147.7 442.5,147.6C441.7,147.5 441,147.4 440.3,147.2L440.3,143.8L463.5,143.8L463.5,152.2L459.4,152.2C459.3,151.5 459.1,150.8 459,150.1C458.9,149.4 458.8,148.8 458.7,148.3L450.3,148.3L450.3,158.9L457,158.9C457.1,158.3 457.2,157.7 457.3,157.2C457.4,156.7 457.5,156.2 457.7,155.7L461.2,155.7L461.2,166.3L457.7,166.3C457.5,165.8 457.4,165.3 457.3,164.7C457.2,164.1 457.1,163.6 457,163.1L450.3,163.1L450.3,174.5L458.7,174.5C458.8,173.9 458.9,173.2 459,172.5C459.1,171.8 459.2,171.1 459.4,170.3L463.5,170.3L463.5,179L440.3,178.9Z" style="fill:rgb(18,24,23);fill-rule:nonzero;"/>
        <path d="M489.8,172.8C489.2,174.2 488.3,175.3 487.1,176.3C486,177.3 484.6,178.1 482.9,178.6C481.3,179.2 479.4,179.4 477.4,179.4C474.6,179.4 472,179.1 469.7,178.5L469.7,169.7L473.9,169.7C474,170.5 474.2,171.3 474.3,172C474.4,172.7 474.5,173.4 474.6,174.1C475.1,174.2 475.6,174.3 476.2,174.4C476.8,174.5 477.3,174.5 477.8,174.5C478.8,174.5 479.7,174.4 480.6,174.2C481.5,174 482.2,173.7 482.9,173.2C483.5,172.8 484,172.2 484.4,171.5C484.8,170.8 484.9,170 484.9,169.1C484.9,167.9 484.5,166.9 483.7,166.2C482.9,165.5 482,164.9 480.8,164.3C479.7,163.8 478.4,163.3 477,162.8C475.6,162.3 474.4,161.7 473.2,161C472.1,160.2 471.1,159.3 470.3,158.1C469.5,156.9 469.1,155.4 469.1,153.5C469.1,152 469.4,150.6 470,149.4C470.6,148.2 471.4,147.1 472.5,146.2C473.6,145.3 474.9,144.6 476.5,144.1C478.1,143.6 479.9,143.3 481.9,143.3C483.1,143.3 484.3,143.4 485.5,143.5C486.6,143.6 487.8,143.8 489,144L489,152.5L484.8,152.5C484.6,151.7 484.5,151 484.4,150.3C484.3,149.6 484.2,148.9 484.2,148.3C483.9,148.2 483.6,148.2 483.1,148.1C482.6,148 482.2,148 481.8,148C479.6,148 477.9,148.5 476.9,149.4C475.9,150.3 475.3,151.5 475.3,153C475.3,154.2 475.7,155.1 476.5,155.8C477.3,156.5 478.2,157.1 479.4,157.6C480.6,158.1 481.8,158.6 483.2,159.1C484.5,159.6 485.8,160.2 487,161C488.2,161.7 489.1,162.7 489.9,163.8C490.7,164.9 491.1,166.4 491.1,168.3C490.7,169.9 490.4,171.4 489.8,172.8Z" style="fill:rgb(18,24,23);fill-rule:nonzero;"/>
        <path d="M511.5,154.9C511.2,154 510.9,153.1 510.6,152.2C510.4,151.3 510.1,150.4 509.9,149.4L509.8,149.4C509.6,150.3 509.4,151.2 509.1,152.2C508.8,153.1 508.5,154.1 508.2,155L504.4,165.5L515.4,165.5L511.5,154.9ZM514.7,178.9L514.7,175.5C515.3,175.4 515.9,175.2 516.599,175.1C517.3,175 518,174.9 518.599,174.8L516.8,169.9L502.9,169.9L501.1,174.8C501.8,174.9 502.4,175 503.1,175.1C503.8,175.2 504.4,175.3 505,175.5L505,178.9L492.4,178.9L492.4,175.5C492.9,175.4 493.3,175.2 493.9,175.2C494.5,175.2 494.9,175 495.4,175L506.6,143.9L513.4,143.9L524.7,175C525.2,175.1 525.7,175.1 526.2,175.2C526.7,175.3 527.2,175.4 527.7,175.5L527.7,178.9L514.7,178.9Z" style="fill:rgb(18,24,23);fill-rule:nonzero;"/>
        <rect x="573.8" y="69.3" width="3.9" height="141.7" style="fill:rgb(18,24,23);fill-rule:nonzero;"/>
    </g>
</svg>
